<svg version="1.1" id="logo" xmlns="http://www.w3.org/2000/svg" x="0" y="0" viewBox="0 0 178 50" xml:space="preserve"><style>.st0{fill:#585858}</style><g id="logo_x5F_text"><path class="st0" d="M72.98 21.73h3.66c.6-2.55 1.29-4.45 2.07-5.7a8.64 8.64 0 013.03-2.95c1.25-.72 2.42-1.08 3.52-1.08.62 0 1.09.12 1.41.37.32.24.48.54.48.87 0 .31-.11.56-.32.77-.22.2-.5.31-.84.31-.36 0-1.03-.11-2.03-.32-.49-.1-.87-.15-1.15-.15-.67 0-1.28.42-1.83 1.25-.54.83-.98 1.96-1.3 3.38l-.77 3.26h4.06l-.25 1.09h-4.11l-2.4 9.77c-.75 2.97-1.94 5.22-3.58 6.75s-3.42 2.3-5.34 2.3c-.64 0-1.13-.13-1.46-.38-.33-.25-.5-.56-.5-.93 0-.32.11-.57.34-.76.23-.19.56-.28.99-.28.21 0 .53.03.95.08.71.09 1.4.14 2.05.14 1.01 0 1.75-.24 2.21-.71s.92-1.64 1.38-3.48l3.11-12.5H72.7l.28-1.1zM86.85 26.57h7.11l-.37 1.52h-7.14l.4-1.52zM102.77 23.41c.83-.91 1.64-1.58 2.44-2 .8-.42 1.51-.64 2.12-.64.71 0 1.29.29 1.72.86.43.57.64 1.44.64 2.59 0 1.68-.39 3.31-1.18 4.92-.79 1.6-1.76 2.82-2.92 3.66-1.16.84-2.29 1.26-3.39 1.26-.94 0-1.69-.28-2.25-.83-.56-.55-.84-1.27-.84-2.14 0-.7.14-1.68.41-2.94l1.81-8.1c.44-1.98.99-3.49 1.65-4.53a7.418 7.418 0 012.62-2.48c1.08-.62 2.11-.93 3.08-.93.58 0 1.01.1 1.28.3.27.2.41.47.41.8 0 .31-.12.56-.37.77-.25.2-.59.31-1.04.31-.34 0-.92-.08-1.75-.23-.37-.07-.7-.11-.98-.11-.51 0-.93.28-1.24.83-.23.43-.56 1.52-.97 3.26l-1.25 5.37zm3.01-.93c-.5 0-1.1.3-1.78.9-.69.6-1.34 1.67-1.95 3.19-.61 1.53-.92 3.03-.92 4.5 0 .55.18 1.01.53 1.39.35.37.76.56 1.23.56 1.13 0 2.14-.9 3.03-2.69.89-1.79 1.33-3.58 1.33-5.35 0-.81-.17-1.47-.51-1.98-.23-.35-.55-.52-.96-.52zM121.7 29.92l.52.55c-.8.9-1.74 1.72-2.83 2.46s-1.98 1.11-2.69 1.11c-.32 0-.58-.12-.78-.36-.2-.24-.31-.57-.31-.99 0-.82.32-2.51.95-5.09l1.65-6.72c.6-2.43 1.11-4.06 1.51-4.89.63-1.25 1.53-2.22 2.68-2.91 1.16-.69 2.38-1.04 3.66-1.04.44 0 .78.11 1.03.32.25.21.38.47.38.76 0 .33-.12.6-.37.81-.24.21-.6.32-1.07.32-.31 0-.74-.05-1.3-.15-.49-.08-.94-.12-1.36-.12-.42 0-.73.09-.95.26-.3.24-.56.76-.8 1.54s-.63 2.33-1.17 4.63l-1.53 6.42c-.76 3.22-1.13 4.9-1.13 5.04 0 .33.12.49.35.49.22 0 .55-.13.98-.4.89-.53 1.73-1.21 2.58-2.04zM135.12 20.73c1 0 1.83.4 2.5 1.19s1 1.9 1 3.32c0 2.27-.8 4.3-2.39 6.1-1.59 1.8-3.28 2.7-5.05 2.7-1.09 0-1.97-.36-2.64-1.07-.67-.71-1-1.69-1-2.93 0-2.14.61-4.12 1.84-5.94 1.52-2.24 3.45-3.37 5.74-3.37zm-1.3 1.15c-.87 0-1.71.62-2.52 1.86-.81 1.24-1.22 2.95-1.22 5.14 0 1.33.25 2.37.75 3.14.37.56.86.84 1.47.84.86 0 1.64-.53 2.34-1.59.9-1.38 1.35-3.09 1.35-5.13 0-1.53-.21-2.62-.62-3.28-.41-.65-.93-.98-1.55-.98zM151.09 20.73c1 0 1.83.4 2.5 1.19s1 1.9 1 3.32c0 2.27-.8 4.3-2.39 6.1-1.59 1.8-3.28 2.7-5.05 2.7-1.09 0-1.97-.36-2.64-1.07-.67-.71-1-1.69-1-2.93 0-2.14.61-4.12 1.84-5.94 1.52-2.24 3.44-3.37 5.74-3.37zm-1.31 1.15c-.87 0-1.71.62-2.52 1.86-.81 1.24-1.22 2.95-1.22 5.14 0 1.33.25 2.37.75 3.14.37.56.86.84 1.47.84.86 0 1.64-.53 2.34-1.59.9-1.38 1.35-3.09 1.35-5.13 0-1.53-.21-2.62-.62-3.28-.4-.65-.92-.98-1.55-.98zM158.61 24.25l-.46-.61c1.01-1.01 1.97-1.76 2.88-2.24.91-.48 1.63-.72 2.15-.72.22 0 .38.05.48.14s.16.22.16.38c0 .2-.08.6-.25 1.18-.23.86-.4 1.54-.49 2.04 2.44-2.49 4.31-3.74 5.61-3.74.34 0 .59.09.76.28.17.18.26.47.26.87 0 .43-.15 1.16-.46 2.19 1.16-1.21 2.18-2.07 3.04-2.58.86-.51 1.53-.76 2.01-.76.43 0 .76.12 1 .37.23.24.35.62.35 1.13 0 .31-.05.67-.15 1.09-.1.42-.48 1.7-1.12 3.83-.81 2.64-1.21 4.22-1.21 4.73 0 .35.14.52.43.52.19 0 .38-.06.57-.18.6-.43 1.22-.96 1.85-1.59l.51.55c-.21.17-.62.53-1.21 1.07-.82.74-1.38 1.19-1.68 1.38-.59.35-1.09.52-1.5.52-.31 0-.58-.15-.81-.45s-.35-.72-.35-1.25c0-.49.07-1.06.21-1.72.14-.66.56-2.14 1.26-4.43.52-1.73.78-2.77.78-3.14 0-.35-.15-.52-.46-.52-.26 0-.6.13-1.03.38-.88.53-1.61 1.18-2.21 1.95-.41.53-.77 1.37-1.07 2.53-.68 2.52-1.19 4.58-1.53 6.17h-2.17l2.28-9.36c.16-.67.25-1.06.25-1.16 0-.16-.04-.29-.12-.38-.08-.09-.2-.13-.35-.13-.28 0-.7.22-1.28.64-1.01.73-1.74 1.43-2.18 2.11-.44.68-.82 1.71-1.14 3.1l-1.18 5.18h-2.2l1.73-7.31c.51-2.11.77-3.26.77-3.45 0-.23-.09-.35-.28-.35-.41 0-1.22.58-2.45 1.74z"/></g><g id="leaves"><path class="st0" d="M38.4 19.6c8.29-1.68 5.16-9.8 5.16-9.8s-8.47 2.02-5.16 9.8zM42.1 23.79c5.11 2.38 6.64-3.21 6.64-3.21 0-.01-5.34-2.27-6.64 3.21z"/></g><g id="rose_x5F_s"><path class="st0" d="M15.84 43.42s-.54-1.18.77-1.98c1.32-.8 2.16.2 2.16.2l-2.93 1.78zM20.33 42.05s1.2.64.61 2.13c-.59 1.49-1.93 1.2-1.93 1.2l1.32-3.33zM18.02 46.86s-1.21.37-1.72-.83c-.5-1.21.6-1.85.6-1.85l1.12 2.68zM12.85 45.35s-1.36-1.17.06-3.4 3.11-1.59 3.11-1.59l-3.17 4.99zM18.34 49.37s-1.11 1.1-2.98-.32c-1.87-1.42-1.19-2.84-1.19-2.84l4.17 3.16zM23.23 45.1s.83 1.6-1.15 2.98-3.27.1-3.27.1l4.42-3.08zM15.15 39.15s.51-1.58 3.08-1.15 2.65 2.1 2.65 2.1l-5.73-.95zM22.18 39.68s2.2.33 2.09 2.66c-.12 2.33-2.35 2.53-2.35 2.53l.26-5.19z"/></g><g id="rose_x5F_m"><path class="st0" d="M42.16 43.25l-1.34-8.04.48-.04c1.35-.1 4.03.45 4.49 3.27.47 2.81-1.86 4.28-3.16 4.66l-.47.15zm-.31-7.19l1 6.03c.83-.38 2.43-1.4 2.08-3.5-.35-2.09-2.19-2.47-3.08-2.53zM39.27 44.61c-.99 0-2.2-.37-3.43-1.64-2.91-3.01-.88-5.83-.86-5.86l.31-.42 6.69 6.92-.39.3c-.03 0-.97.7-2.32.7zm-3.85-6.52c-.34.78-.72 2.45 1.04 4.26 1.76 1.82 3.39 1.44 4.14 1.1l-5.18-5.36zM36.4 37.08l-.2-.44c-.37-.8-.6-2.6 1.19-3.65 1.78-1.05 3.29-.02 3.84.67l.31.39-5.14 3.03zm2.54-3.66c-.33 0-.7.09-1.1.33-1.05.62-1.09 1.51-.99 2.06l3.31-1.95c-.28-.22-.7-.44-1.22-.44zM31.23 45.54l-.44-.21c-.04-.02-4.05-2.02-2.37-6.77 1.67-4.73 6.1-3.96 6.14-3.95l.5.09-3.83 10.84zm2.52-10.12c-1.13 0-3.44.39-4.51 3.43-1.11 3.15.64 4.83 1.5 5.43l3.13-8.86h-.12zM44.44 34.54l-9.46-5.19.27-.4c.03-.04 2.71-3.87 6.87-1.59 4.14 2.27 2.51 6.67 2.5 6.71l-.18.47zm-8.16-5.48l7.66 4.21c.25-1.07.5-3.63-2.24-5.14-2.75-1.51-4.69.13-5.42.93zM37.83 50c-.92 0-2.03-.3-3.29-1.25-3.53-2.64-2.06-5.7-2.04-5.73l.23-.47 8.12 6.07-.35.36C40.49 49 39.49 50 37.83 50zm-4.71-6.07c-.18.83-.19 2.52 1.95 4.12s3.7 1.06 4.4.63l-6.35-4.75zM43.71 48.42c-2.61 0-4.27-1.7-4.29-1.73l-.35-.37 11.1-7.56.23.43c.02.04 2.29 4.52-2.58 7.83-1.53 1.05-2.92 1.4-4.11 1.4zm-3.26-1.98c.94.73 3.49 2.17 6.88-.13 3.41-2.32 2.87-5.15 2.49-6.24l-9.37 6.37zM46.91 39.66l-1.05-8.38.48-.02c1.34-.04 3.98.65 4.35 3.59.37 2.93-2 4.34-3.3 4.68l-.48.13zm-.05-7.5l.8 6.35c.84-.36 2.45-1.35 2.17-3.55-.28-2.22-2.09-2.7-2.97-2.8zM29.82 35.15l-.19-.45c-.38-.91-.53-2.94 1.63-4.14 2.15-1.19 3.85-.03 4.45.75l.31.4-6.2 3.44zm3.29-4.22c-.42 0-.89.11-1.42.4-1.4.77-1.47 1.91-1.37 2.55l4.33-2.39c-.33-.26-.86-.56-1.54-.56z"/></g><g id="rose_x5F_l"><path class="st0" d="M12.98 15.22l-.05-.48c-.01-.05-.56-5.72 4.57-6.74 5.12-1.02 6.97 4.38 6.99 4.44l.16.47-11.67 2.31zm5.77-6.47c-.34 0-.7.03-1.08.11-3.58.71-3.91 4.05-3.9 5.31l9.7-1.92c-.47-1.05-1.87-3.5-4.72-3.5zM19.37 25.04c-1.95 0-3.3-.91-3.32-.92l-.43-.29 9.85-10.13.31.38c.03.04 3.17 4.04-1.15 8.48-1.88 1.93-3.75 2.48-5.26 2.48zm-2.36-1.39c1.1.53 3.97 1.41 7-1.71 3.04-3.12 1.96-5.88 1.37-6.9l-8.37 8.61zM13.13 22.67c-1.07 0-2.38-.4-3.38-1.98-2-3.16.76-5.55.79-5.57l.38-.33 4.58 7.24-.43.22c-.02.02-.86.42-1.94.42zm-2.39-6.51c-.56.67-1.45 2.19-.26 4.07 1.19 1.88 2.91 1.66 3.73 1.42l-3.47-5.49zM21.58 34.51c-.92 0-1.94-.15-3.07-.51-7.1-2.26-6.16-8.84-6.15-8.91l.08-.5 16.18 5.16-.2.45c-.01.05-1.98 4.31-6.84 4.31zm-8.39-8.76c-.06 1.48.26 5.72 5.59 7.42 5.36 1.71 7.89-1.64 8.62-2.89l-14.21-4.53zM4.02 24.34l-.41-.26C3.56 24.04-2.23 20.24.96 14c3.18-6.23 9.75-4.03 9.82-4.01l.47.16-7.23 14.19zM8 10.44c-1.95 0-4.6.69-6.26 3.95-2.39 4.69.79 7.74 1.96 8.66L10 10.68a8.55 8.55 0 00-2-.24zM27.3 27.98c-1.27 0-2.13-.38-2.15-.39l-.48-.22 8.56-12.22.37.34c.04.03 3.65 3.44-.1 8.79-2.13 3.04-4.52 3.7-6.2 3.7zm-1.27-1.02c1.17.3 4.11.58 6.75-3.18 2.62-3.74 1.26-6.32.56-7.26l-7.31 10.44zM29.79 17.29L18.06 1.17l.43-.24c.07-.04 6.59-3.6 11.75 3.49 5.15 7.08-.04 12.45-.09 12.5l-.36.37zM19.37 1.48l10.5 14.44c1.01-1.28 3.65-5.5-.34-10.98-3.99-5.5-8.7-4.09-10.16-3.46zM6.75 7.74l-.03-.48c0-.06-.3-5.71 5.07-6.55 5.35-.84 7.01 4.58 7.02 4.64l.14.48-12.2 1.91zm6.13-6.24c-.3 0-.62.02-.96.08-3.76.59-4.27 3.88-4.33 5.14l10.21-1.6c-.45-1.08-1.83-3.62-4.92-3.62zM9.64 31.51c-1.27 0-2.92-.48-4.16-2.56-2.29-3.86.85-6.49.88-6.52l.39-.32L12 30.94l-.44.2c-.01.01-.82.37-1.92.37zm-3.08-8.04c-.65.74-1.78 2.56-.32 5.03 1.47 2.47 3.57 2.25 4.5 2.01l-4.18-7.04z"/></g></svg>