<?xml version="1.0" encoding="utf-8"?>
<!-- Generator: Adobe Illustrator 24.2.1, SVG Export Plug-In . SVG Version: 6.00 Build 0)  -->
<svg version="1.1" id="logo" xmlns="http://www.w3.org/2000/svg" xmlns:xlink="http://www.w3.org/1999/xlink" x="0px" y="0px"
	 width="164.11px" height="43.744px" viewBox="0 0 164.11 43.744" style="enable-background:new 0 0 164.11 43.744;"
	 xml:space="preserve">
<style type="text/css">
	.st0{display:none;}
	.st1{display:inline;}
	.st2{font-family:'MonotypeCorsiva';}
	.st3{font-size:46.2988px;}
	.st4{letter-spacing:5;}
	.st5{letter-spacing:4;}
	.st6{letter-spacing:6;}
	.st7{letter-spacing:3;}
	.st8{fill:none;stroke:#000000;stroke-width:3;stroke-miterlimit:10;}
</style>
<g id="logo_x5F_text">
	<path d="M11.281,14.355h5.403c0.889-3.768,1.906-6.57,3.052-8.409c1.145-1.839,2.637-3.29,4.476-4.353
		C26.05,0.531,27.784,0,29.412,0c0.919,0,1.612,0.181,2.08,0.543c0.467,0.361,0.701,0.791,0.701,1.288
		c0,0.452-0.159,0.829-0.476,1.131c-0.317,0.302-0.732,0.452-1.245,0.452c-0.528,0-1.525-0.158-2.989-0.475
		c-0.725-0.15-1.291-0.227-1.698-0.227c-0.996,0-1.895,0.614-2.694,1.843s-1.441,2.89-1.924,4.984l-1.135,4.815h5.99l-0.362,1.605
		H19.59l-3.54,14.423c-1.1,4.386-2.86,7.709-5.279,9.97s-5.044,3.391-7.878,3.391c-0.949,0-1.669-0.185-2.159-0.554
		S0,42.365,0,41.823c0-0.468,0.169-0.841,0.509-1.119c0.339-0.279,0.825-0.419,1.458-0.419c0.316,0,0.784,0.038,1.402,0.113
		c1.055,0.136,2.065,0.204,3.029,0.204c1.492,0,2.577-0.351,3.255-1.052s1.356-2.415,2.035-5.143l4.589-18.447h-5.403L11.281,14.355
		z"/>
	<path d="M31.746,21.499h10.489l-0.544,2.238H31.157L31.746,21.499z"/>
	<path d="M55.239,16.843c1.221-1.342,2.422-2.325,3.605-2.95c1.183-0.626,2.227-0.938,3.131-0.938c1.055,0,1.899,0.422,2.532,1.266
		c0.633,0.845,0.95,2.118,0.95,3.82c0,2.473-0.581,4.892-1.741,7.257c-1.161,2.366-2.596,4.168-4.307,5.403
		c-1.711,1.235-3.38,1.854-5.007,1.854c-1.387,0-2.495-0.406-3.323-1.221c-0.829-0.813-1.244-1.868-1.244-3.165
		c0-1.04,0.204-2.486,0.61-4.34l2.668-11.959c0.647-2.924,1.461-5.15,2.441-6.681c0.979-1.529,2.268-2.75,3.866-3.662
		c1.597-0.912,3.112-1.368,4.544-1.368c0.859,0,1.488,0.147,1.888,0.441s0.599,0.689,0.599,1.187c0,0.452-0.181,0.829-0.543,1.13
		c-0.362,0.302-0.875,0.452-1.538,0.452c-0.498,0-1.357-0.112-2.578-0.339c-0.543-0.105-1.026-0.158-1.447-0.158
		c-0.754,0-1.365,0.407-1.833,1.221c-0.347,0.633-0.822,2.238-1.425,4.815L55.239,16.843z M59.693,15.463
		c-0.739,0-1.617,0.445-2.634,1.334c-1.018,0.89-1.978,2.461-2.882,4.714s-1.356,4.465-1.356,6.635c0,0.814,0.26,1.496,0.78,2.046
		c0.52,0.551,1.126,0.825,1.82,0.825c1.673,0,3.165-1.322,4.476-3.968c1.312-2.645,1.967-5.278,1.967-7.9
		c0-1.19-0.249-2.163-0.746-2.917C60.77,15.72,60.295,15.463,59.693,15.463z"/>
	<path d="M83.186,26.45l0.769,0.813c-1.176,1.327-2.565,2.536-4.171,3.629c-1.604,1.093-2.928,1.639-3.968,1.639
		c-0.467,0-0.852-0.177-1.152-0.531c-0.302-0.354-0.452-0.84-0.452-1.458c0-1.205,0.467-3.707,1.399-7.506l2.438-9.924
		c0.889-3.587,1.633-5.991,2.235-7.212c0.934-1.847,2.254-3.28,3.962-4.301c1.709-1.021,3.511-1.531,5.408-1.531
		c0.646,0,1.155,0.155,1.523,0.466c0.369,0.312,0.554,0.688,0.554,1.127c0,0.486-0.181,0.885-0.541,1.195
		c-0.36,0.312-0.886,0.467-1.576,0.467c-0.451,0-1.09-0.075-1.915-0.226c-0.722-0.121-1.39-0.182-2.005-0.182
		c-0.616,0-1.082,0.128-1.397,0.383c-0.436,0.36-0.829,1.118-1.183,2.272c-0.353,1.155-0.927,3.436-1.723,6.84l-2.255,9.473
		c-1.116,4.747-1.674,7.227-1.674,7.438c0,0.482,0.174,0.724,0.521,0.724c0.331,0,0.813-0.196,1.447-0.588
		C80.682,28.674,81.934,27.671,83.186,26.45z"/>
	<path d="M102.992,12.886c1.477,0,2.705,0.588,3.685,1.764s1.47,2.811,1.47,4.905c0,3.347-1.176,6.35-3.526,9.009
		c-2.352,2.66-4.838,3.99-7.46,3.99c-1.613,0-2.913-0.527-3.9-1.582s-1.48-2.494-1.48-4.318c0-3.165,0.904-6.088,2.713-8.771
		C96.768,14.552,99.602,12.886,102.992,12.886z M101.07,14.582c-1.281,0-2.521,0.915-3.719,2.746s-1.797,4.359-1.797,7.585
		c0,1.959,0.369,3.504,1.107,4.634c0.543,0.829,1.267,1.244,2.171,1.244c1.266,0,2.419-0.784,3.458-2.352
		c1.326-2.034,1.99-4.559,1.99-7.573c0-2.261-0.306-3.873-0.916-4.838C102.755,15.064,101.99,14.582,101.07,14.582z"/>
	<path d="M126.554,12.886c1.477,0,2.705,0.588,3.685,1.764s1.47,2.811,1.47,4.905c0,3.347-1.176,6.35-3.526,9.009
		c-2.352,2.66-4.838,3.99-7.46,3.99c-1.613,0-2.913-0.527-3.9-1.582s-1.48-2.494-1.48-4.318c0-3.165,0.904-6.088,2.713-8.771
		C120.329,14.552,123.163,12.886,126.554,12.886z M124.632,14.582c-1.281,0-2.521,0.915-3.719,2.746s-1.797,4.359-1.797,7.585
		c0,1.959,0.369,3.504,1.107,4.634c0.543,0.829,1.267,1.244,2.171,1.244c1.266,0,2.419-0.784,3.458-2.352
		c1.326-2.034,1.99-4.559,1.99-7.573c0-2.261-0.306-3.873-0.916-4.838C126.316,15.064,125.552,14.582,124.632,14.582z"/>
	<path d="M137.66,18.086l-0.678-0.904c1.491-1.492,2.909-2.592,4.254-3.301c1.345-0.708,2.403-1.063,3.176-1.063
		c0.318,0,0.557,0.067,0.715,0.203s0.238,0.324,0.238,0.565c0,0.302-0.121,0.882-0.362,1.74c-0.347,1.267-0.588,2.269-0.724,3.007
		c3.607-3.677,6.365-5.516,8.274-5.516c0.496,0,0.871,0.136,1.127,0.407c0.256,0.271,0.384,0.7,0.384,1.288
		c0,0.633-0.226,1.711-0.677,3.232c1.719-1.793,3.212-3.063,4.479-3.809c1.267-0.746,2.255-1.119,2.964-1.119
		c0.633,0,1.123,0.181,1.471,0.543c0.347,0.361,0.52,0.919,0.52,1.673c0,0.452-0.075,0.987-0.226,1.604
		c-0.151,0.618-0.701,2.502-1.65,5.652c-1.19,3.903-1.786,6.231-1.786,6.985c0,0.513,0.211,0.769,0.633,0.769
		c0.286,0,0.565-0.091,0.837-0.271c0.889-0.633,1.801-1.416,2.735-2.352l0.746,0.814c-0.316,0.256-0.912,0.783-1.786,1.582
		c-1.206,1.085-2.034,1.764-2.486,2.035c-0.875,0.512-1.613,0.769-2.216,0.769c-0.452,0-0.852-0.223-1.198-0.667
		s-0.52-1.059-0.52-1.843c0-0.724,0.104-1.571,0.316-2.543c0.211-0.973,0.828-3.153,1.854-6.545
		c0.769-2.547,1.153-4.092,1.153-4.634c0-0.513-0.227-0.77-0.679-0.77c-0.377,0-0.882,0.189-1.515,0.565
		c-1.296,0.784-2.382,1.741-3.255,2.871c-0.604,0.784-1.131,2.027-1.583,3.73c-1.01,3.723-1.764,6.759-2.261,9.11h-3.21
		l3.368-13.813c0.241-0.995,0.362-1.567,0.362-1.719c0-0.24-0.061-0.425-0.181-0.554c-0.121-0.128-0.294-0.192-0.52-0.192
		c-0.406,0-1.038,0.317-1.896,0.95c-1.49,1.07-2.562,2.106-3.217,3.108c-0.654,1.002-1.215,2.528-1.681,4.578l-1.738,7.641h-3.248
		l2.555-10.783c0.754-3.12,1.13-4.815,1.13-5.087c0-0.347-0.135-0.52-0.406-0.52C140.667,15.509,139.469,16.367,137.66,18.086z"/>
</g>
<g id="original_x5F_data" class="st0">
	<text id="テキストデータ" transform="matrix(1 0 0 1 6.5788 31.8988)" class="st1"><tspan x="0" y="0" class="st2 st3 st4">f</tspan><tspan x="20.78" y="0" class="st2 st3 st5">-</tspan><tspan x="37.854" y="0" class="st2 st3 st4">b</tspan><tspan x="63.269" y="0" class="st2 st3 st6">l</tspan><tspan x="81.267" y="0" class="st2 st3 st4">o</tspan><tspan x="104.829" y="0" class="st2 st3 st7">o</tspan><tspan x="126.538" y="0" class="st2 st3 st4">m</tspan></text>
	<g id="rose_x5F_m_1_" class="st1">
		<path class="st8" d="M137.364-74.778c0,0,12.007-0.921,13.814,9.954c1.807,10.875-9.783,14.305-9.783,14.305L137.364-74.778z"/>
		<path class="st8" d="M137.315-47.573c0,0-8.502,6.448-17.703-3.07s-2.824-18.163-2.824-18.163L137.315-47.573z"/>
		<path class="st8" d="M121.139-71.883c0,0-3.104-6.711,3.487-10.599c6.591-3.887,11.216,1.927,11.216,1.927L121.139-71.883z"/>
		<path class="st8" d="M101.875-42.848c0,0-12.741-6.149-7.366-21.357c5.376-15.209,19.358-12.569,19.358-12.569L101.875-42.848z"/>
		<path class="st8" d="M117.763-96.805c0,0,8.37-12.227,21.578-4.971c13.208,7.256,7.886,21.157,7.886,21.157L117.763-96.805z"/>
		<path class="st8" d="M133.467-29.99c0,0-7.25,7.446-18.476-0.947s-6.566-17.777-6.566-17.777L133.467-29.99z"/>
		<path class="st8" d="M167.119-61.81c0,0,7.429,14.172-8.356,24.922s-26.858-0.942-26.858-0.942L167.119-61.81z"/>
		<path class="st8" d="M154.598-88.222c0,0,11.949-0.384,13.376,11.008s-10.193,14.406-10.193,14.406L154.598-88.222z"/>
		<path class="st8" d="M98.645-78.491c0,0-3.258-7.757,4.937-12.286s13.345,2.182,13.345,2.182L98.645-78.491z"/>
	</g>
	<g id="rose_x5F_l_1_" class="st1">
		<path class="st8" d="M41.466-146.49c0,0-1.97-18.237,14.5-21.502c16.47-3.266,22.241,14.217,22.241,14.217L41.466-146.49z"/>
		<path class="st8" d="M82.886-147.703c0,0,10.219,12.638-3.836,27.097s-27.518,5.159-27.518,5.159L82.886-147.703z"/>
		<path class="st8" d="M46.642-121.926c0,0-10.07,5.043-16.3-4.807s2.403-17.167,2.403-17.167L46.642-121.926z"/>
		<path class="st8" d="M91.758-93.973c0,0-8.758,19.689-32.166,12.225S39.54-110.624,39.54-110.624L91.758-93.973z"/>
		<path class="st8" d="M8.862-115.606c0,0-19.01-12.163-8.59-32.614c10.421-20.451,31.835-13.007,31.835-13.007L8.862-115.606z"/>
		<path class="st8" d="M109.836-142.677c0,0,11.68,10.685-0.567,28.173s-26.752,10.838-26.752,10.838L109.836-142.677z"/>
		<path class="st8" d="M59.8-192.403c0,0,21.224-11.982,38.337,11.542s-0.162,40.933-0.162,40.933L59.8-192.403z"/>
		<path class="st8" d="M20.184-172.09c0,0-1.151-18.174,16.126-20.886s22.414,14.836,22.414,14.836L20.184-172.09z"/>
		<path class="st8" d="M34.689-91.495c0,0-11.655,5.328-18.939-6.934s2.69-20.42,2.69-20.42L34.689-91.495z"/>
	</g>
</g>
</svg>
